<svg width="718" height="222" viewBox="0 0 718 222" fill="none" xmlns="http://www.w3.org/2000/svg">
<path d="M129.5 0L258.105 198.75H0.895233L129.5 0Z" fill="#0070F3"/>
<path d="M169 26L274.655 199.25H63.3449L169 26Z" fill="#FF6584"/>
<path d="M169 82L254 222H84L169 82Z" fill="#0070F3"/>
<path d="M334.4 76.5V85.8H315.9V146H304.5V85.8H285.9V76.5H334.4ZM342.145 118.2C342.145 112.667 343.279 107.767 345.545 103.5C347.879 99.2333 351.012 95.9333 354.945 93.6C358.945 91.2 363.345 90 368.145 90C372.479 90 376.245 90.8667 379.445 92.6C382.712 94.2667 385.312 96.3667 387.245 98.9V90.9H398.745V146H387.245V137.8C385.312 140.4 382.679 142.567 379.345 144.3C376.012 146.033 372.212 146.9 367.945 146.9C363.212 146.9 358.879 145.7 354.945 143.3C351.012 140.833 347.879 137.433 345.545 133.1C343.279 128.7 342.145 123.733 342.145 118.2ZM387.245 118.4C387.245 114.6 386.445 111.3 384.845 108.5C383.312 105.7 381.279 103.567 378.745 102.1C376.212 100.633 373.479 99.9 370.545 99.9C367.612 99.9 364.879 100.633 362.345 102.1C359.812 103.5 357.745 105.6 356.145 108.4C354.612 111.133 353.845 114.4 353.845 118.2C353.845 122 354.612 125.333 356.145 128.2C357.745 131.067 359.812 133.267 362.345 134.8C364.945 136.267 367.679 137 370.545 137C373.479 137 376.212 136.267 378.745 134.8C381.279 133.333 383.312 131.2 384.845 128.4C386.445 125.533 387.245 122.2 387.245 118.4ZM409.919 118.2C409.919 112.667 411.052 107.767 413.319 103.5C415.652 99.2333 418.785 95.9333 422.719 93.6C426.719 91.2 431.152 90 436.019 90C439.619 90 443.152 90.8 446.619 92.4C450.152 93.9333 452.952 96 455.019 98.6V72H466.519V146H455.019V137.7C453.152 140.367 450.552 142.567 447.219 144.3C443.952 146.033 440.185 146.9 435.919 146.9C431.119 146.9 426.719 145.7 422.719 143.3C418.785 140.833 415.652 137.433 413.319 133.1C411.052 128.7 409.919 123.733 409.919 118.2ZM455.019 118.4C455.019 114.6 454.219 111.3 452.619 108.5C451.085 105.7 449.052 103.567 446.519 102.1C443.985 100.633 441.252 99.9 438.319 99.9C435.385 99.9 432.652 100.633 430.119 102.1C427.585 103.5 425.519 105.6 423.919 108.4C422.385 111.133 421.619 114.4 421.619 118.2C421.619 122 422.385 125.333 423.919 128.2C425.519 131.067 427.585 133.267 430.119 134.8C432.719 136.267 435.452 137 438.319 137C441.252 137 443.985 136.267 446.519 134.8C449.052 133.333 451.085 131.2 452.619 128.4C454.219 125.533 455.019 122.2 455.019 118.4ZM519.392 76.5V126.6C519.392 132.8 517.492 137.7 513.692 141.3C509.959 144.9 505.026 146.7 498.892 146.7C492.759 146.7 487.792 144.9 483.992 141.3C480.259 137.7 478.392 132.8 478.392 126.6H489.892C489.959 129.667 490.726 132.1 492.192 133.9C493.726 135.7 495.959 136.6 498.892 136.6C501.826 136.6 504.059 135.7 505.592 133.9C507.126 132.033 507.892 129.6 507.892 126.6V76.5H519.392ZM561.838 146.9C556.638 146.9 551.938 145.733 547.738 143.4C543.538 141 540.238 137.667 537.838 133.4C535.438 129.067 534.238 124.067 534.238 118.4C534.238 112.8 535.471 107.833 537.938 103.5C540.404 99.1667 543.771 95.8333 548.038 93.5C552.304 91.1667 557.071 90 562.338 90C567.604 90 572.371 91.1667 576.638 93.5C580.904 95.8333 584.271 99.1667 586.738 103.5C589.204 107.833 590.438 112.8 590.438 118.4C590.438 124 589.171 128.967 586.638 133.3C584.104 137.633 580.638 141 576.238 143.4C571.904 145.733 567.104 146.9 561.838 146.9ZM561.838 137C564.771 137 567.504 136.3 570.038 134.9C572.638 133.5 574.738 131.4 576.338 128.6C577.938 125.8 578.738 122.4 578.738 118.4C578.738 114.4 577.971 111.033 576.438 108.3C574.904 105.5 572.871 103.4 570.338 102C567.804 100.6 565.071 99.9 562.138 99.9C559.204 99.9 556.471 100.6 553.938 102C551.471 103.4 549.504 105.5 548.038 108.3C546.571 111.033 545.838 114.4 545.838 118.4C545.838 124.333 547.338 128.933 550.338 132.2C553.404 135.4 557.238 137 561.838 137ZM613.107 99.1C615.04 96.4333 617.674 94.2667 621.007 92.6C624.407 90.8667 628.174 90 632.307 90C637.174 90 641.574 91.1667 645.507 93.5C649.44 95.8333 652.54 99.1667 654.807 103.5C657.074 107.767 658.207 112.667 658.207 118.2C658.207 123.733 657.074 128.7 654.807 133.1C652.54 137.433 649.407 140.833 645.407 143.3C641.474 145.7 637.107 146.9 632.307 146.9C628.04 146.9 624.24 146.067 620.907 144.4C617.64 142.733 615.04 140.6 613.107 138V146H601.707V72H613.107V99.1ZM646.607 118.2C646.607 114.4 645.807 111.133 644.207 108.4C642.674 105.6 640.607 103.5 638.007 102.1C635.474 100.633 632.74 99.9 629.807 99.9C626.94 99.9 624.207 100.633 621.607 102.1C619.074 103.567 617.007 105.7 615.407 108.5C613.874 111.3 613.107 114.6 613.107 118.4C613.107 122.2 613.874 125.533 615.407 128.4C617.007 131.2 619.074 133.333 621.607 134.8C624.207 136.267 626.94 137 629.807 137C632.74 137 635.474 136.267 638.007 134.8C640.607 133.267 642.674 131.067 644.207 128.2C645.807 125.333 646.607 122 646.607 118.2ZM689.48 146.9C685.147 146.9 681.247 146.133 677.78 144.6C674.38 143 671.68 140.867 669.68 138.2C667.68 135.467 666.614 132.433 666.48 129.1H678.28C678.48 131.433 679.58 133.4 681.58 135C683.647 136.533 686.214 137.3 689.28 137.3C692.48 137.3 694.947 136.7 696.68 135.5C698.48 134.233 699.38 132.633 699.38 130.7C699.38 128.633 698.38 127.1 696.38 126.1C694.447 125.1 691.347 124 687.08 122.8C682.947 121.667 679.58 120.567 676.98 119.5C674.38 118.433 672.114 116.8 670.18 114.6C668.314 112.4 667.38 109.5 667.38 105.9C667.38 102.967 668.247 100.3 669.98 97.9C671.714 95.4333 674.18 93.5 677.38 92.1C680.647 90.7 684.38 90 688.58 90C694.847 90 699.88 91.6 703.68 94.8C707.547 97.9333 709.614 102.233 709.88 107.7H698.48C698.28 105.233 697.28 103.267 695.48 101.8C693.68 100.333 691.247 99.6 688.18 99.6C685.18 99.6 682.88 100.167 681.28 101.3C679.68 102.433 678.88 103.933 678.88 105.8C678.88 107.267 679.414 108.5 680.48 109.5C681.547 110.5 682.847 111.3 684.38 111.9C685.914 112.433 688.18 113.133 691.18 114C695.18 115.067 698.447 116.167 700.98 117.3C703.58 118.367 705.814 119.967 707.68 122.1C709.547 124.233 710.514 127.067 710.58 130.6C710.58 133.733 709.714 136.533 707.98 139C706.247 141.467 703.78 143.4 700.58 144.8C697.447 146.2 693.747 146.9 689.48 146.9Z" fill="#0070F3"/>
</svg>
