<svg width="687" height="222" viewBox="0 0 687 222" fill="none" xmlns="http://www.w3.org/2000/svg">
<rect width="1024" height="768" transform="translate(-158 -242)" fill="white"/>
<path d="M129.5 0L258.105 198.75H0.895233L129.5 0Z" fill="#0070F3"/>
<path d="M169 26L274.655 199.25H63.3449L169 26Z" fill="#FF6584"/>
<path d="M169 82L254 222H84L169 82Z" fill="#0070F3"/>
<path d="M306.4 82.5V91.8H287.9V152H276.5V91.8H257.9V82.5H306.4ZM314.145 124.2C314.145 118.667 315.279 113.767 317.545 109.5C319.879 105.233 323.012 101.933 326.945 99.6C330.945 97.2 335.345 96 340.145 96C344.479 96 348.245 96.8667 351.445 98.6C354.712 100.267 357.312 102.367 359.245 104.9V96.9H370.745V152H359.245V143.8C357.312 146.4 354.679 148.567 351.345 150.3C348.012 152.033 344.212 152.9 339.945 152.9C335.212 152.9 330.879 151.7 326.945 149.3C323.012 146.833 319.879 143.433 317.545 139.1C315.279 134.7 314.145 129.733 314.145 124.2ZM359.245 124.4C359.245 120.6 358.445 117.3 356.845 114.5C355.312 111.7 353.279 109.567 350.745 108.1C348.212 106.633 345.479 105.9 342.545 105.9C339.612 105.9 336.879 106.633 334.345 108.1C331.812 109.5 329.745 111.6 328.145 114.4C326.612 117.133 325.845 120.4 325.845 124.2C325.845 128 326.612 131.333 328.145 134.2C329.745 137.067 331.812 139.267 334.345 140.8C336.945 142.267 339.679 143 342.545 143C345.479 143 348.212 142.267 350.745 140.8C353.279 139.333 355.312 137.2 356.845 134.4C358.445 131.533 359.245 128.2 359.245 124.4ZM381.919 124.2C381.919 118.667 383.052 113.767 385.319 109.5C387.652 105.233 390.785 101.933 394.719 99.6C398.719 97.2 403.152 96 408.019 96C411.619 96 415.152 96.8 418.619 98.4C422.152 99.9333 424.952 102 427.019 104.6V78H438.519V152H427.019V143.7C425.152 146.367 422.552 148.567 419.219 150.3C415.952 152.033 412.185 152.9 407.919 152.9C403.119 152.9 398.719 151.7 394.719 149.3C390.785 146.833 387.652 143.433 385.319 139.1C383.052 134.7 381.919 129.733 381.919 124.2ZM427.019 124.4C427.019 120.6 426.219 117.3 424.619 114.5C423.085 111.7 421.052 109.567 418.519 108.1C415.985 106.633 413.252 105.9 410.319 105.9C407.385 105.9 404.652 106.633 402.119 108.1C399.585 109.5 397.519 111.6 395.919 114.4C394.385 117.133 393.619 120.4 393.619 124.2C393.619 128 394.385 131.333 395.919 134.2C397.519 137.067 399.585 139.267 402.119 140.8C404.719 142.267 407.452 143 410.319 143C413.252 143 415.985 142.267 418.519 140.8C421.052 139.333 423.085 137.2 424.619 134.4C426.219 131.533 427.019 128.2 427.019 124.4ZM491.392 82.5V132.6C491.392 138.8 489.492 143.7 485.692 147.3C481.959 150.9 477.026 152.7 470.892 152.7C464.759 152.7 459.792 150.9 455.992 147.3C452.259 143.7 450.392 138.8 450.392 132.6H461.892C461.959 135.667 462.726 138.1 464.192 139.9C465.726 141.7 467.959 142.6 470.892 142.6C473.826 142.6 476.059 141.7 477.592 139.9C479.126 138.033 479.892 135.6 479.892 132.6V82.5H491.392ZM533.838 152.9C528.638 152.9 523.938 151.733 519.738 149.4C515.538 147 512.238 143.667 509.838 139.4C507.438 135.067 506.238 130.067 506.238 124.4C506.238 118.8 507.471 113.833 509.938 109.5C512.404 105.167 515.771 101.833 520.038 99.5C524.304 97.1667 529.071 96 534.338 96C539.604 96 544.371 97.1667 548.638 99.5C552.904 101.833 556.271 105.167 558.738 109.5C561.204 113.833 562.438 118.8 562.438 124.4C562.438 130 561.171 134.967 558.638 139.3C556.104 143.633 552.638 147 548.238 149.4C543.904 151.733 539.104 152.9 533.838 152.9ZM533.838 143C536.771 143 539.504 142.3 542.038 140.9C544.638 139.5 546.738 137.4 548.338 134.6C549.938 131.8 550.738 128.4 550.738 124.4C550.738 120.4 549.971 117.033 548.438 114.3C546.904 111.5 544.871 109.4 542.338 108C539.804 106.6 537.071 105.9 534.138 105.9C531.204 105.9 528.471 106.6 525.938 108C523.471 109.4 521.504 111.5 520.038 114.3C518.571 117.033 517.838 120.4 517.838 124.4C517.838 130.333 519.338 134.933 522.338 138.2C525.404 141.4 529.238 143 533.838 143ZM585.107 105.1C587.04 102.433 589.674 100.267 593.007 98.6C596.407 96.8667 600.174 96 604.307 96C609.174 96 613.574 97.1667 617.507 99.5C621.44 101.833 624.54 105.167 626.807 109.5C629.074 113.767 630.207 118.667 630.207 124.2C630.207 129.733 629.074 134.7 626.807 139.1C624.54 143.433 621.407 146.833 617.407 149.3C613.474 151.7 609.107 152.9 604.307 152.9C600.04 152.9 596.24 152.067 592.907 150.4C589.64 148.733 587.04 146.6 585.107 144V152H573.707V78H585.107V105.1ZM618.607 124.2C618.607 120.4 617.807 117.133 616.207 114.4C614.674 111.6 612.607 109.5 610.007 108.1C607.474 106.633 604.74 105.9 601.807 105.9C598.94 105.9 596.207 106.633 593.607 108.1C591.074 109.567 589.007 111.7 587.407 114.5C585.874 117.3 585.107 120.6 585.107 124.4C585.107 128.2 585.874 131.533 587.407 134.4C589.007 137.2 591.074 139.333 593.607 140.8C596.207 142.267 598.94 143 601.807 143C604.74 143 607.474 142.267 610.007 140.8C612.607 139.267 614.674 137.067 616.207 134.2C617.807 131.333 618.607 128 618.607 124.2ZM661.48 152.9C657.147 152.9 653.247 152.133 649.78 150.6C646.38 149 643.68 146.867 641.68 144.2C639.68 141.467 638.614 138.433 638.48 135.1H650.28C650.48 137.433 651.58 139.4 653.58 141C655.647 142.533 658.214 143.3 661.28 143.3C664.48 143.3 666.947 142.7 668.68 141.5C670.48 140.233 671.38 138.633 671.38 136.7C671.38 134.633 670.38 133.1 668.38 132.1C666.447 131.1 663.347 130 659.08 128.8C654.947 127.667 651.58 126.567 648.98 125.5C646.38 124.433 644.114 122.8 642.18 120.6C640.314 118.4 639.38 115.5 639.38 111.9C639.38 108.967 640.247 106.3 641.98 103.9C643.714 101.433 646.18 99.5 649.38 98.1C652.647 96.7 656.38 96 660.58 96C666.847 96 671.88 97.6 675.68 100.8C679.547 103.933 681.614 108.233 681.88 113.7H670.48C670.28 111.233 669.28 109.267 667.48 107.8C665.68 106.333 663.247 105.6 660.18 105.6C657.18 105.6 654.88 106.167 653.28 107.3C651.68 108.433 650.88 109.933 650.88 111.8C650.88 113.267 651.414 114.5 652.48 115.5C653.547 116.5 654.847 117.3 656.38 117.9C657.914 118.433 660.18 119.133 663.18 120C667.18 121.067 670.447 122.167 672.98 123.3C675.58 124.367 677.814 125.967 679.68 128.1C681.547 130.233 682.514 133.067 682.58 136.6C682.58 139.733 681.714 142.533 679.98 145C678.247 147.467 675.78 149.4 672.58 150.8C669.447 152.2 665.747 152.9 661.48 152.9Z" fill="#0070F3"/>
</svg>
